ffmpeg version git-2026-04-19-de18feb Copyright (c) 2000-2026 the FFmpeg developers
  built with gcc 9 (Ubuntu 9.4.0-1ubuntu1~20.04.2)
  configuration: --enable-shared --enable-gpl --enable-libx264
  libavutil      60. 30.100 / 60. 30.100
  libavcodec     62. 30.100 / 62. 30.100
  libavformat    62. 13.102 / 62. 13.102
  libavdevice    62.  4.100 / 62.  4.100
  libavfilter    11. 15.101 / 11. 15.101
  libswscale      9.  7.100 /  9.  7.100
  libswresample   6.  4.100 /  6.  4.100
[in#0/x11grab @ 0x55dcecd31c40] Stream #0: not enough frames to estimate rate; consider increasing probesize
Input #0, x11grab, from ':0.0+0,0':
  Duration: N/A, start: 1777434875.206086, bitrate: 3678192 kb/s
  Stream #0:0: Video: rawvideo (BGR[0] / 0x524742), bgr0, 2870x1602, 3678192 kb/s, 25 fps, 1000k tbr, 1000k tbn, start 1777434875.206086
Stream mapping:
  Stream #0:0 -> #0:0 (rawvideo (native) -> h264 (libx264))
[libx264 @ 0x55dcecd3ff00] using cpu capabilities: MMX2 SSE2Fast SSSE3 SSE4.2 AVX FMA3 BMI2 AVX2
[libx264 @ 0x55dcecd3ff00] profile High, level 5.0
[libx264 @ 0x55dcecd3ff00] 264 - core 155 r2917 0a84d98 - H.264/MPEG-4 AVC codec - Copyleft 2003-2018 - http://www.videolan.org/x264.html - options: cabac=1 ref=1 deblock=1:0:0 analyse=0x3:0x113 me=hex subme=2 psy=1 psy_rd=1.00:0.00 mixed_ref=0 me_range=16 chroma_me=1 trellis=0 8x8dct=1 cqm=0 deadzone=21,11 fast_pskip=1 chroma_qp_offset=0 threads=6 lookahead_threads=2 sliced_threads=0 nr=0 decimate=1 interlaced=0 bluray_compat=0 constrained_intra=0 bframes=3 b_pyramid=2 b_adapt=1 b_bias=0 direct=1 weightb=1 open_gop=0 weightp=1 keyint=250 keyint_min=25 scenecut=40 intra_refresh=0 rc_lookahead=10 rc=crf mbtree=1 crf=23.0 qcomp=0.60 qpmin=0 qpmax=69 qpstep=4 ip_ratio=1.40 aq=1:1.00
Output #0, matroska, to '/home/lmy/catkin_ws/recordings_tmp/exp_10_point_v5/screen.mkv':
  Metadata:
    encoder         : Lavf62.13.102
  Stream #0:0: Video: h264 (H264 / 0x34363248), yuv420p(tv, progressive), 2870x1602, q=2-31, 25 fps, 1k tbn
    Metadata:
      encoder         : Lavc62.30.100 libx264
    Side data:
      CPB properties: bitrate max/min/avg: 0/0/0 buffer size: 0 vbv_delay: N/A
frame=    0 fps=0.0 q=0.0 size=       0KiB time=N/A bitrate=N/A speed=N/A elapsed=0:00:00.50    frame=    6 fps=6.0 q=28.0 size=       1KiB time=00:00:00.16 bitrate=  29.7kbits/s speed=0.16x elapsed=0:00:01.00    frame=   18 fps= 12 q=28.0 size=       1KiB time=00:00:00.68 bitrate=   7.0kbits/s speed=0.453x elapsed=0:00:01.50    frame=   31 fps= 15 q=28.0 size=       1KiB time=00:00:01.20 bitrate=   4.0kbits/s speed=0.599x elapsed=0:00:02.00    frame=   43 fps= 17 q=28.0 size=       1KiB time=00:00:01.64 bitrate=   2.9kbits/s speed=0.655x elapsed=0:00:02.50    frame=   56 fps= 19 q=28.0 size=       1KiB time=00:00:02.16 bitrate=   2.2kbits/s speed=0.719x elapsed=0:00:03.00    frame=   68 fps= 19 q=28.0 size=       1KiB time=00:00:02.68 bitrate=   1.8kbits/s speed=0.765x elapsed=0:00:03.50    frame=   81 fps= 20 q=28.0 size=       1KiB time=00:00:03.16 bitrate=   1.5kbits/s speed=0.789x elapsed=0:00:04.00    frame=   93 fps= 21 q=28.0 size=       1KiB time=00:00:03.64 bitrate=   1.3kbits/s speed=0.808x elapsed=0:00:04.50    frame=  106 fps= 21 q=28.0 size=       1KiB time=00:00:04.20 bitrate=   1.1kbits/s speed=0.839x elapsed=0:00:05.00    frame=  119 fps= 22 q=28.0 size=       1KiB time=00:00:04.68 bitrate=   1.0kbits/s speed=0.85x elapsed=0:00:05.50    frame=  131 fps= 22 q=28.0 size=     171KiB time=00:00:05.16 bitrate= 272.1kbits/s speed=0.858x elapsed=0:00:06.01    frame=  144 fps= 22 q=28.0 size=     171KiB time=00:00:05.68 bitrate= 247.2kbits/s speed=0.872x elapsed=0:00:06.51    frame=  156 fps= 22 q=28.0 size=     171KiB time=00:00:06.16 bitrate= 227.9kbits/s speed=0.878x elapsed=0:00:07.01    frame=  169 fps= 22 q=28.0 size=     171KiB time=00:00:06.68 bitrate= 210.2kbits/s speed=0.889x elapsed=0:00:07.51    frame=  181 fps= 23 q=28.0 size=     171KiB time=00:00:07.20 bitrate= 195.0kbits/s speed=0.898x elapsed=0:00:08.01    frame=  194 fps= 23 q=28.0 size=     171KiB time=00:00:07.72 bitrate= 181.9kbits/s speed=0.907x elapsed=0:00:08.51    frame=  206 fps= 23 q=28.0 size=     171KiB time=00:00:08.20 bitrate= 171.2kbits/s speed=0.909x elapsed=0:00:09.01    frame=  219 fps= 23 q=28.0 size=     171KiB time=00:00:08.72 bitrate= 161.0kbits/s speed=0.916x elapsed=0:00:09.51    frame=  231 fps= 23 q=28.0 size=     171KiB time=00:00:09.16 bitrate= 153.3kbits/s speed=0.914x elapsed=0:00:10.01    frame=  244 fps= 23 q=28.0 size=     171KiB time=00:00:09.68 bitrate= 145.0kbits/s speed=0.92x elapsed=0:00:10.51    frame=  256 fps= 23 q=28.0 size=     256KiB time=00:00:10.16 bitrate= 206.4kbits/s speed=0.922x elapsed=0:00:11.01    frame=  269 fps= 23 q=28.0 size=     256KiB time=00:00:10.72 bitrate= 195.6kbits/s speed=0.931x elapsed=0:00:11.51    frame=  281 fps= 23 q=28.0 size=     256KiB time=00:00:11.16 bitrate= 187.9kbits/s speed=0.929x elapsed=0:00:12.01    frame=  294 fps= 23 q=28.0 size=     256KiB time=00:00:11.68 bitrate= 179.6kbits/s speed=0.933x elapsed=0:00:12.51    frame=  306 fps= 24 q=28.0 size=     256KiB time=00:00:12.20 bitrate= 171.9kbits/s speed=0.937x elapsed=0:00:13.01    frame=  319 fps= 24 q=28.0 size=     256KiB time=00:00:12.72 bitrate= 164.9kbits/s speed=0.941x elapsed=0:00:13.51    frame=  331 fps= 24 q=28.0 size=     256KiB time=00:00:13.20 bitrate= 158.9kbits/s speed=0.942x elapsed=0:00:14.01    frame=  344 fps= 24 q=28.0 size=     256KiB time=00:00:13.72 bitrate= 152.9kbits/s speed=0.945x elapsed=0:00:14.51    frame=  356 fps= 24 q=28.0 size=     256KiB time=00:00:14.16 bitrate= 148.1kbits/s speed=0.943x elapsed=0:00:15.01    frame=  369 fps= 24 q=28.0 size=     256KiB time=00:00:14.72 bitrate= 142.5kbits/s speed=0.948x elapsed=0:00:15.52    frame=  381 fps= 24 q=28.0 size=     256KiB time=00:00:15.16 bitrate= 138.3kbits/s speed=0.946x elapsed=0:00:16.02    frame=  394 fps= 24 q=28.0 size=     256KiB time=00:00:15.72 bitrate= 133.4kbits/s speed=0.952x elapsed=0:00:16.52    frame=  407 fps= 24 q=28.0 size=     256KiB time=00:00:16.20 bitrate= 129.5kbits/s speed=0.952x elapsed=0:00:17.02    frame=  419 fps= 24 q=28.0 size=     256KiB time=00:00:16.68 bitrate= 125.7kbits/s speed=0.952x elapsed=0:00:17.52    frame=  432 fps= 24 q=28.0 size=     256KiB time=00:00:17.24 bitrate= 121.6kbits/s speed=0.956x elapsed=0:00:18.02    frame=  444 fps= 24 q=28.0 size=     256KiB time=00:00:17.72 bitrate= 118.3kbits/s speed=0.957x elapsed=0:00:18.52    frame=  457 fps= 24 q=28.0 size=     256KiB time=00:00:18.24 bitrate= 115.0kbits/s speed=0.959x elapsed=0:00:19.02    frame=  469 fps= 24 q=28.0 size=     256KiB time=00:00:18.72 bitrate= 112.0kbits/s speed=0.959x elapsed=0:00:19.52    frame=  482 fps= 24 q=28.0 size=     256KiB time=00:00:19.24 bitrate= 109.0kbits/s speed=0.961x elapsed=0:00:20.02    frame=  494 fps= 24 q=28.0 size=     256KiB time=00:00:19.72 bitrate= 106.3kbits/s speed=0.961x elapsed=0:00:20.52    frame=  507 fps= 24 q=28.0 size=     512KiB time=00:00:20.24 bitrate= 207.2kbits/s speed=0.962x elapsed=0:00:21.02    frame=  519 fps= 24 q=28.0 size=     512KiB time=00:00:20.72 bitrate= 202.4kbits/s speed=0.962x elapsed=0:00:21.52    frame=  532 fps= 24 q=28.0 size=     512KiB time=00:00:21.20 bitrate= 197.8kbits/s speed=0.962x elapsed=0:00:22.03    frame=  544 fps= 24 q=28.0 size=     512KiB time=00:00:21.68 bitrate= 193.5kbits/s speed=0.962x elapsed=0:00:22.53    frame=  557 fps= 24 q=28.0 size=     512KiB time=00:00:22.20 bitrate= 188.9kbits/s speed=0.964x elapsed=0:00:23.03    frame=  569 fps= 24 q=28.0 size=     512KiB time=00:00:22.72 bitrate= 184.6kbits/s speed=0.965x elapsed=0:00:23.53    frame=  582 fps= 24 q=28.0 size=     512KiB time=00:00:23.20 bitrate= 180.8kbits/s speed=0.965x elapsed=0:00:24.03    frame=  594 fps= 24 q=28.0 size=     512KiB time=00:00:23.72 bitrate= 176.8kbits/s speed=0.967x elapsed=0:00:24.53    frame=  607 fps= 24 q=28.0 size=     512KiB time=00:00:24.20 bitrate= 173.3kbits/s speed=0.967x elapsed=0:00:25.03    frame=  619 fps= 24 q=28.0 size=     512KiB time=00:00:24.68 bitrate= 169.9kbits/s speed=0.966x elapsed=0:00:25.53    frame=  632 fps= 24 q=28.0 size=     768KiB time=00:00:25.24 bitrate= 249.3kbits/s speed=0.969x elapsed=0:00:26.03    frame=  644 fps= 24 q=28.0 size=     768KiB time=00:00:25.68 bitrate= 245.0kbits/s speed=0.968x elapsed=0:00:26.53    frame=  656 fps= 24 q=28.0 size=     768KiB time=00:00:26.16 bitrate= 240.5kbits/s speed=0.968x elapsed=0:00:27.03    frame=  669 fps= 24 q=28.0 size=     768KiB time=00:00:26.68 bitrate= 235.8kbits/s speed=0.969x elapsed=0:00:27.53    frame=  682 fps= 24 q=28.0 size=     768KiB time=00:00:27.24 bitrate= 231.0kbits/s speed=0.972x elapsed=0:00:28.03    frame=  694 fps= 24 q=28.0 size=     768KiB time=00:00:27.72 bitrate= 227.0kbits/s speed=0.971x elapsed=0:00:28.53    frame=  707 fps= 24 q=28.0 size=     768KiB time=00:00:28.20 bitrate= 223.1kbits/s speed=0.971x elapsed=0:00:29.04    frame=  719 fps= 24 q=28.0 size=     768KiB time=00:00:28.72 bitrate= 219.1kbits/s speed=0.972x elapsed=0:00:29.54    frame=  732 fps= 24 q=28.0 size=     768KiB time=00:00:29.20 bitrate= 215.5kbits/s speed=0.972x elapsed=0:00:30.04    frame=  744 fps= 24 q=28.0 size=     768KiB time=00:00:29.68 bitrate= 212.0kbits/s speed=0.972x elapsed=0:00:30.54    frame=  757 fps= 24 q=28.0 size=     768KiB time=00:00:30.20 bitrate= 208.3kbits/s speed=0.973x elapsed=0:00:31.04    frame=  769 fps= 24 q=28.0 size=     768KiB time=00:00:30.68 bitrate= 205.1kbits/s speed=0.973x elapsed=0:00:31.54    frame=  782 fps= 24 q=28.0 size=     768KiB time=00:00:31.20 bitrate= 201.6kbits/s speed=0.974x elapsed=0:00:32.04    frame=  795 fps= 24 q=28.0 size=     768KiB time=00:00:31.72 bitrate= 198.3kbits/s speed=0.975x elapsed=0:00:32.54    frame=  807 fps= 24 q=28.0 size=     768KiB time=00:00:32.20 bitrate= 195.4kbits/s speed=0.974x elapsed=0:00:33.04    frame=  820 fps= 24 q=28.0 size=     768KiB time=00:00:32.76 bitrate= 192.0kbits/s speed=0.977x elapsed=0:00:33.54    frame=  832 fps= 24 q=28.0 size=     768KiB time=00:00:33.20 bitrate= 189.5kbits/s speed=0.975x elapsed=0:00:34.04    frame=  845 fps= 24 q=28.0 size=     768KiB time=00:00:33.76 bitrate= 186.4kbits/s speed=0.977x elapsed=0:00:34.55    frame=  857 fps= 24 q=28.0 size=     768KiB time=00:00:34.20 bitrate= 184.0kbits/s speed=0.976x elapsed=0:00:35.05    frame=  870 fps= 24 q=28.0 size=     768KiB time=00:00:34.72 bitrate= 181.2kbits/s speed=0.977x elapsed=0:00:35.55    frame=  882 fps= 24 q=28.0 size=    1024KiB time=00:00:35.24 bitrate= 238.0kbits/s speed=0.977x elapsed=0:00:36.05    frame=  895 fps= 24 q=28.0 size=    1024KiB time=00:00:35.72 bitrate= 234.8kbits/s speed=0.977x elapsed=0:00:36.55    frame=  907 fps= 24 q=28.0 size=    1024KiB time=00:00:36.20 bitrate= 231.7kbits/s speed=0.977x elapsed=0:00:37.05    frame=  920 fps= 24 q=28.0 size=    1024KiB time=00:00:36.72 bitrate= 228.4kbits/s speed=0.978x elapsed=0:00:37.55    frame=  932 fps= 24 q=28.0 size=    1024KiB time=00:00:37.24 bitrate= 225.3kbits/s speed=0.979x elapsed=0:00:38.05    frame=  945 fps= 25 q=28.0 size=    1024KiB time=00:00:37.72 bitrate= 222.4kbits/s speed=0.978x elapsed=0:00:38.55    frame=  957 fps= 25 q=28.0 size=    1024KiB time=00:00:38.20 bitrate= 219.6kbits/s speed=0.978x elapsed=0:00:39.05    frame=  970 fps= 25 q=28.0 size=    1024KiB time=00:00:38.76 bitrate= 216.4kbits/s speed=0.98x elapsed=0:00:39.55    frame=  982 fps= 25 q=28.0 size=    1024KiB time=00:00:39.20 bitrate= 214.0kbits/s speed=0.979x elapsed=0:00:40.05    frame=  995 fps= 25 q=28.0 size=    1024KiB time=00:00:39.76 bitrate= 211.0kbits/s speed=0.98x elapsed=0:00:40.55    frame= 1007 fps= 25 q=28.0 size=    1024KiB time=00:00:40.24 bitrate= 208.5kbits/s speed=0.98x elapsed=0:00:41.05    frame= 1020 fps= 25 q=28.0 size=    1024KiB time=00:00:40.72 bitrate= 206.0kbits/s speed=0.98x elapsed=0:00:41.55    frame= 1032 fps= 25 q=28.0 size=    1024KiB time=00:00:41.20 bitrate= 203.6kbits/s speed=0.98x elapsed=0:00:42.05    frame= 1045 fps= 25 q=28.0 size=    1024KiB time=00:00:41.76 bitrate= 200.9kbits/s speed=0.981x elapsed=0:00:42.55    frame= 1057 fps= 25 q=28.0 size=    1024KiB time=00:00:42.24 bitrate= 198.6kbits/s speed=0.981x elapsed=0:00:43.05    frame= 1070 fps= 25 q=28.0 size=    1024KiB time=00:00:42.76 bitrate= 196.2kbits/s speed=0.982x elapsed=0:00:43.56    frame= 1082 fps= 25 q=28.0 size=    1024KiB time=00:00:43.20 bitrate= 194.2kbits/s speed=0.98x elapsed=0:00:44.06    frame= 1095 fps= 25 q=28.0 size=    1024KiB time=00:00:43.76 bitrate= 191.7kbits/s speed=0.982x elapsed=0:00:44.56    frame= 1108 fps= 25 q=28.0 size=    1024KiB time=00:00:44.28 bitrate= 189.4kbits/s speed=0.983x elapsed=0:00:45.06    frame= 1120 fps= 25 q=28.0 size=    1024KiB time=00:00:44.72 bitrate= 187.6kbits/s speed=0.981x elapsed=0:00:45.56    frame= 1132 fps= 25 q=28.0 size=    1280KiB time=00:00:45.20 bitrate= 232.0kbits/s speed=0.981x elapsed=0:00:46.06    frame= 1145 fps= 25 q=28.0 size=    1280KiB time=00:00:45.72 bitrate= 229.3kbits/s speed=0.982x elapsed=0:00:46.56    frame= 1158 fps= 25 q=28.0 size=    1280KiB time=00:00:46.24 bitrate= 226.8kbits/s speed=0.982x elapsed=0:00:47.06    frame= 1170 fps= 25 q=28.0 size=    1280KiB time=00:00:46.72 bitrate= 224.4kbits/s speed=0.982x elapsed=0:00:47.56    frame= 1182 fps= 25 q=28.0 size=    1280KiB time=00:00:47.24 bitrate= 222.0kbits/s speed=0.983x elapsed=0:00:48.06    frame= 1195 fps= 25 q=28.0 size=    1280KiB time=00:00:47.76 bitrate= 219.6kbits/s speed=0.983x elapsed=0:00:48.56    frame= 1208 fps= 25 q=28.0 size=    1280KiB time=00:00:48.24 bitrate= 217.4kbits/s speed=0.983x elapsed=0:00:49.06    frame= 1220 fps= 25 q=28.0 size=    1280KiB time=00:00:48.72 bitrate= 215.2kbits/s speed=0.983x elapsed=0:00:49.56    frame= 1233 fps= 25 q=28.0 size=    1280KiB time=00:00:49.28 bitrate= 212.8kbits/s speed=0.984x elapsed=0:00:50.06    frame= 1245 fps= 25 q=28.0 size=    1280KiB time=00:00:49.72 bitrate= 210.9kbits/s speed=0.983x elapsed=0:00:50.56    frame= 1258 fps= 25 q=28.0 size=    1280KiB time=00:00:50.24 bitrate= 208.7kbits/s speed=0.984x elapsed=0:00:51.06    frame= 1270 fps= 25 q=28.0 size=    1280KiB time=00:00:50.72 bitrate= 206.7kbits/s speed=0.984x elapsed=0:00:51.56    frame= 1283 fps= 25 q=28.0 size=    1280KiB time=00:00:51.24 bitrate= 204.6kbits/s speed=0.984x elapsed=0:00:52.06    frame= 1295 fps= 25 q=28.0 size=    1280KiB time=00:00:51.76 bitrate= 202.6kbits/s speed=0.985x elapsed=0:00:52.56    frame= 1308 fps= 25 q=28.0 size=    1280KiB time=00:00:52.24 bitrate= 200.7kbits/s speed=0.984x elapsed=0:00:53.06    frame= 1320 fps= 25 q=28.0 size=    1280KiB time=00:00:52.72 bitrate= 198.9kbits/s speed=0.984x elapsed=0:00:53.56    frame= 1333 fps= 25 q=28.0 size=    1280KiB time=00:00:53.28 bitrate= 196.8kbits/s speed=0.985x elapsed=0:00:54.06    frame= 1345 fps= 25 q=28.0 size=    1280KiB time=00:00:53.72 bitrate= 195.2kbits/s speed=0.984x elapsed=0:00:54.56    frame= 1358 fps= 25 q=28.0 size=    1280KiB time=00:00:54.24 bitrate= 193.3kbits/s speed=0.985x elapsed=0:00:55.07    frame= 1370 fps= 25 q=28.0 size=    1280KiB time=00:00:54.72 bitrate= 191.6kbits/s speed=0.985x elapsed=0:00:55.57    frame= 1383 fps= 25 q=28.0 size=    1536KiB time=00:00:55.24 bitrate= 227.8kbits/s speed=0.985x elapsed=0:00:56.07    frame= 1395 fps= 25 q=28.0 size=    1536KiB time=00:00:55.76 bitrate= 225.7kbits/s speed=0.986x elapsed=0:00:56.57    frame= 1407 fps= 25 q=28.0 size=    1536KiB time=00:00:56.24 bitrate= 223.7kbits/s speed=0.985x elapsed=0:00:57.07    frame= 1420 fps= 25 q=28.0 size=    1536KiB time=00:00:56.72 bitrate= 221.8kbits/s speed=0.985x elapsed=0:00:57.57    frame= 1433 fps= 25 q=28.0 size=    1536KiB time=00:00:57.28 bitrate= 219.7kbits/s speed=0.986x elapsed=0:00:58.07    frame= 1445 fps= 25 q=28.0 size=    1536KiB time=00:00:57.72 bitrate= 218.0kbits/s speed=0.985x elapsed=0:00:58.57    frame= 1458 fps= 25 q=28.0 size=    1536KiB time=00:00:58.24 bitrate= 216.1kbits/s speed=0.986x elapsed=0:00:59.07    frame= 1470 fps= 25 q=28.0 size=    1536KiB time=00:00:58.76 bitrate= 214.1kbits/s speed=0.986x elapsed=0:00:59.57    frame= 1483 fps= 25 q=28.0 size=    1536KiB time=00:00:59.28 bitrate= 212.3kbits/s speed=0.987x elapsed=0:01:00.07    frame= 1495 fps= 25 q=28.0 size=    1536KiB time=00:00:59.72 bitrate= 210.7kbits/s speed=0.986x elapsed=0:01:00.57    frame= 1508 fps= 25 q=28.0 size=    1792KiB time=00:01:00.24 bitrate= 243.7kbits/s speed=0.986x elapsed=0:01:01.07    frame= 1520 fps= 25 q=28.0 size=    1792KiB time=00:01:00.72 bitrate= 241.8kbits/s speed=0.986x elapsed=0:01:01.57    frame= 1533 fps= 25 q=28.0 size=    1792KiB time=00:01:01.24 bitrate= 239.7kbits/s speed=0.986x elapsed=0:01:02.07    frame= 1545 fps= 25 q=28.0 size=    1792KiB time=00:01:01.76 bitrate= 237.7kbits/s speed=0.987x elapsed=0:01:02.58    frame= 1558 fps= 25 q=28.0 size=    1792KiB time=00:01:02.24 bitrate= 235.9kbits/s speed=0.987x elapsed=0:01:03.08    frame= 1570 fps= 25 q=28.0 size=    1792KiB time=00:01:02.76 bitrate= 233.9kbits/s speed=0.987x elapsed=0:01:03.58    frame= 1583 fps= 25 q=28.0 size=    1792KiB time=00:01:03.24 bitrate= 232.1kbits/s speed=0.987x elapsed=0:01:04.08    frame= 1595 fps= 25 q=28.0 size=    1792KiB time=00:01:03.72 bitrate= 230.4kbits/s speed=0.987x elapsed=0:01:04.58    frame= 1608 fps= 25 q=28.0 size=    1792KiB time=00:01:04.24 bitrate= 228.5kbits/s speed=0.987x elapsed=0:01:05.08    frame= 1621 fps= 25 q=28.0 size=    1792KiB time=00:01:04.80 bitrate= 226.5kbits/s speed=0.988x elapsed=0:01:05.58    frame= 1633 fps= 25 q=28.0 size=    2048KiB time=00:01:05.28 bitrate= 257.0kbits/s speed=0.988x elapsed=0:01:06.08    frame= 1645 fps= 25 q=28.0 size=    2048KiB time=00:01:05.72 bitrate= 255.3kbits/s speed=0.987x elapsed=0:01:06.58    frame= 1658 fps= 25 q=28.0 size=    2048KiB time=00:01:06.24 bitrate= 253.3kbits/s speed=0.987x elapsed=0:01:07.08    frame= 1670 fps= 25 q=28.0 size=    2048KiB time=00:01:06.72 bitrate= 251.5kbits/s speed=0.987x elapsed=0:01:07.58    frame= 1683 fps= 25 q=28.0 size=    2048KiB time=00:01:07.24 bitrate= 249.5kbits/s speed=0.988x elapsed=0:01:08.08    frame= 1695 fps= 25 q=28.0 size=    2048KiB time=00:01:07.76 bitrate= 247.6kbits/s speed=0.988x elapsed=0:01:08.58    frame= 1708 fps= 25 q=28.0 size=    2048KiB time=00:01:08.24 bitrate= 245.9kbits/s speed=0.988x elapsed=0:01:09.08    frame= 1720 fps= 25 q=28.0 size=    2048KiB time=00:01:08.72 bitrate= 244.1kbits/s speed=0.988x elapsed=0:01:09.58    frame= 1733 fps= 25 q=28.0 size=    2048KiB time=00:01:09.28 bitrate= 242.2kbits/s speed=0.988x elapsed=0:01:10.08    [out#0/matroska @ 0x55dcecd3e500] Error writing trailer: Immediate exit requested
[out#0/matroska @ 0x55dcecd3e500] Error closing file: Immediate exit requested
[out#0/matroska @ 0x55dcecd3e500] video:2681KiB audio:0KiB subtitle:0KiB other streams:0KiB global headers:0KiB muxing overhead: unknown
frame= 1766 fps= 25 q=-1.0 Lsize=    2048KiB time=00:01:10.56 bitrate= 237.8kbits/s speed=0.997x elapsed=0:01:10.79    
[libx264 @ 0x55dcecd3ff00] frame I:8     Avg QP:12.03  size:136362
[libx264 @ 0x55dcecd3ff00] frame P:445   Avg QP:17.28  size:  2332
[libx264 @ 0x55dcecd3ff00] frame B:1313  Avg QP:24.32  size:   469
[libx264 @ 0x55dcecd3ff00] consecutive B-frames:  0.8%  0.0%  0.2% 99.0%
[libx264 @ 0x55dcecd3ff00] mb I  I16..4: 87.1%  1.8% 11.1%
[libx264 @ 0x55dcecd3ff00] mb P  I16..4:  0.3%  0.1%  0.0%  P16..4:  0.3%  0.2%  0.1%  0.0%  0.0%    skip:99.0%
[libx264 @ 0x55dcecd3ff00] mb B  I16..4:  0.0%  0.0%  0.0%  B16..8:  0.3%  0.1%  0.0%  direct: 0.0%  skip:99.6%  L0:47.0% L1:46.4% BI: 6.6%
[libx264 @ 0x55dcecd3ff00] 8x8 transform intra:4.3% inter:2.3%
[libx264 @ 0x55dcecd3ff00] coded y,uvDC,uvAC intra: 16.4% 22.8% 19.0% inter: 0.1% 0.1% 0.0%
[libx264 @ 0x55dcecd3ff00] i16 v,h,dc,p: 69% 29%  2%  0%
[libx264 @ 0x55dcecd3ff00] i8 v,h,dc,ddl,ddr,vr,hd,vl,hu: 13% 21% 60%  1%  1%  3%  1%  0%  0%
[libx264 @ 0x55dcecd3ff00] i4 v,h,dc,ddl,ddr,vr,hd,vl,hu: 34% 26% 19%  3%  3%  5%  3%  4%  3%
[libx264 @ 0x55dcecd3ff00] i8c dc,h,v,p: 61% 29%  9%  0%
[libx264 @ 0x55dcecd3ff00] Weighted P-Frames: Y:0.0% UV:0.0%
[libx264 @ 0x55dcecd3ff00] kb/s:310.68
Exiting normally, received signal 2.
